<svg width="20" height="20" viewBox="0 0 20 20" fill="none" xmlns="http://www.w3.org/2000/svg">
<path d="M19.5292 6.48419C19.1149 5.96269 18.4934 5.66264 17.8291 5.66264H17.4285L17.6434 4.44877C17.6773 4.26184 17.6339 4.06895 17.5249 3.91357C17.4166 3.7576 17.2499 3.65222 17.063 3.62008L11.7087 2.68541C11.32 2.61695 10.9509 2.87592 10.8825 3.26407L10.4545 5.66324H9.72648L10.1789 3.14143C10.3146 2.36275 11.0575 1.84124 11.8289 1.98412L14.679 2.48419L14.3433 0.591054C14.2719 0.198138 13.9004 -0.0590428 13.5147 0.0123964L6.34305 1.26258C6.15018 1.2983 5.98589 1.39832 5.87875 1.55548C5.7716 1.71265 5.72874 1.90554 5.75731 2.09128L6.38233 5.66324H4.95729L4.34299 2.99796C4.27156 2.67648 3.98583 2.44788 3.65011 2.44788H0.714307C0.321438 2.44788 0 2.76935 0 3.16227C0 3.55519 0.321438 3.87666 0.714307 3.87666H3.07866L5.32159 13.5924C5.55017 14.5854 6.42162 15.2712 7.44308 15.2712H16.6076C17.6291 15.2712 18.5006 14.5854 18.7291 13.5924L19.9435 8.31304C20.0935 7.67008 19.9435 6.99855 19.5292 6.48419ZM15.3362 12.5279H8.92169C8.52883 12.5279 8.20739 12.2065 8.20739 11.8136C8.20739 11.4135 8.52883 11.0992 8.92169 11.0992H15.3362C15.7362 11.0992 16.0505 11.4135 16.0505 11.8136C16.0505 12.2065 15.7362 12.5279 15.3362 12.5279ZM16.9434 9.62752H7.3145C6.92163 9.62752 6.6002 9.30604 6.6002 8.91313C6.6002 8.51307 6.92163 8.19873 7.3145 8.19873H16.9434C17.3362 8.19873 17.6577 8.51307 17.6577 8.91313C17.6577 9.30604 17.3362 9.62752 16.9434 9.62752Z" fill="white"/>
<path d="M7.74665 16.3955C6.75019 16.3955 5.93945 17.204 5.93945 18.197C5.93945 19.1912 6.75019 19.9996 7.74665 19.9996C8.74311 19.9996 9.55385 19.1906 9.55385 18.197C9.55385 17.204 8.74311 16.3955 7.74665 16.3955Z" fill="white"/>
<path d="M16.3023 16.3955C15.3052 16.3955 14.4951 17.204 14.4951 18.197C14.4951 19.1912 15.3058 19.9996 16.3023 19.9996C17.2987 19.9996 18.1095 19.1906 18.1095 18.197C18.1107 17.204 17.2999 16.3955 16.3023 16.3955Z" fill="white"/>
</svg>
