<svg width="228" height="44" viewBox="0 0 228 44" fill="none" xmlns="http://www.w3.org/2000/svg">
<rect width="44" height="44" rx="22" fill="#9540FC"/>
<g clip-path="url(#clip0_3501_2)">
<path d="M32.4821 18.1331C32.0263 17.5594 31.3427 17.2293 30.612 17.2293H30.1713L30.4077 15.8941C30.445 15.6885 30.3972 15.4763 30.2774 15.3054C30.1582 15.1338 29.9749 15.0179 29.7693 14.9825L23.8795 13.9544C23.452 13.8791 23.046 14.1639 22.9707 14.5909L22.4999 17.23H21.6991L22.1968 14.456C22.3461 13.5995 23.1632 13.0258 24.0118 13.183L27.1469 13.7331L26.7776 11.6506C26.699 11.2184 26.2905 10.9355 25.8662 11.0141L17.9774 12.3893C17.7652 12.4286 17.5845 12.5386 17.4666 12.7115C17.3488 12.8844 17.3016 13.0965 17.333 13.3008L18.0206 17.23H16.453L15.7773 14.2982C15.6987 13.9446 15.3844 13.6931 15.0151 13.6931H11.7857C11.3536 13.6931 11 14.0467 11 14.4789C11 14.9111 11.3536 15.2648 11.7857 15.2648H14.3865L16.8537 25.9521C17.1052 27.0444 18.0638 27.7988 19.1874 27.7988H29.2684C30.392 27.7988 31.3506 27.0444 31.602 25.9521L32.9378 20.1448C33.1028 19.4375 32.9378 18.6988 32.4821 18.1331ZM27.8698 24.7812H20.8139C20.3817 24.7812 20.0281 24.4276 20.0281 23.9954C20.0281 23.5553 20.3817 23.2095 20.8139 23.2095H27.8698C28.3098 23.2095 28.6555 23.5553 28.6555 23.9954C28.6555 24.4276 28.3098 24.7812 27.8698 24.7812ZM29.6377 21.5907H19.046C18.6138 21.5907 18.2602 21.2371 18.2602 20.8049C18.2602 20.3648 18.6138 20.019 19.046 20.019H29.6377C30.0699 20.019 30.4234 20.3648 30.4234 20.8049C30.4234 21.2371 30.0699 21.5907 29.6377 21.5907Z" fill="white"/>
<path d="M19.5213 29.0356C18.4252 29.0356 17.5334 29.9249 17.5334 31.0172C17.5334 32.1109 18.4252 33.0002 19.5213 33.0002C20.6174 33.0002 21.5092 32.1102 21.5092 31.0172C21.5092 29.9249 20.6174 29.0356 19.5213 29.0356Z" fill="white"/>
<path d="M28.9325 29.0356C27.8357 29.0356 26.9446 29.9249 26.9446 31.0172C26.9446 32.1109 27.8364 33.0002 28.9325 33.0002C30.0286 33.0002 30.9204 32.1102 30.9204 31.0172C30.9217 29.9249 30.0299 29.0356 28.9325 29.0356Z" fill="white"/>
</g>
<path d="M59 29L54.44 14.94H57.12L60.5 25.76H59.6L62.92 14.94H64.94L68.26 25.76H67.34L70.74 14.94H73.42L68.84 29H66.82L63.48 18.2H64.36L61.04 29H59Z" fill="#1A1A1A"/>
<path d="M78.2156 29.2C77.2423 29.2 76.3623 28.98 75.5756 28.54C74.8023 28.0867 74.1823 27.48 73.7156 26.72C73.2623 25.9467 73.0356 25.0867 73.0356 24.14C73.0356 23.1934 73.2623 22.3467 73.7156 21.6C74.169 20.84 74.789 20.24 75.5756 19.8C76.3623 19.3467 77.2356 19.12 78.1956 19.12C79.1823 19.12 80.0623 19.3467 80.8356 19.8C81.6223 20.24 82.2423 20.84 82.6956 21.6C83.149 22.3467 83.3756 23.1934 83.3756 24.14C83.3756 25.0867 83.149 25.9467 82.6956 26.72C82.2423 27.48 81.6223 28.0867 80.8356 28.54C80.0623 28.98 79.189 29.2 78.2156 29.2ZM78.1956 26.76C78.689 26.76 79.1223 26.6534 79.4956 26.44C79.8823 26.2134 80.1756 25.9067 80.3756 25.52C80.589 25.12 80.6956 24.6667 80.6956 24.16C80.6956 23.6534 80.589 23.2067 80.3756 22.82C80.1623 22.4334 79.869 22.1334 79.4956 21.92C79.1223 21.6934 78.689 21.58 78.1956 21.58C77.7156 21.58 77.289 21.6934 76.9156 21.92C76.5423 22.1334 76.249 22.4334 76.0356 22.82C75.8223 23.2067 75.7156 23.6534 75.7156 24.16C75.7156 24.6667 75.8223 25.12 76.0356 25.52C76.249 25.9067 76.5423 26.2134 76.9156 26.44C77.289 26.6534 77.7156 26.76 78.1956 26.76Z" fill="#1A1A1A"/>
<path d="M89.6023 29.2C88.629 29.2 87.749 28.98 86.9623 28.54C86.189 28.0867 85.569 27.48 85.1023 26.72C84.649 25.9467 84.4223 25.0867 84.4223 24.14C84.4223 23.1934 84.649 22.3467 85.1023 21.6C85.5557 20.84 86.1757 20.24 86.9623 19.8C87.749 19.3467 88.6223 19.12 89.5823 19.12C90.569 19.12 91.449 19.3467 92.2223 19.8C93.009 20.24 93.629 20.84 94.0823 21.6C94.5357 22.3467 94.7623 23.1934 94.7623 24.14C94.7623 25.0867 94.5357 25.9467 94.0823 26.72C93.629 27.48 93.009 28.0867 92.2223 28.54C91.449 28.98 90.5757 29.2 89.6023 29.2ZM89.5823 26.76C90.0757 26.76 90.509 26.6534 90.8823 26.44C91.269 26.2134 91.5623 25.9067 91.7623 25.52C91.9757 25.12 92.0823 24.6667 92.0823 24.16C92.0823 23.6534 91.9757 23.2067 91.7623 22.82C91.549 22.4334 91.2557 22.1334 90.8823 21.92C90.509 21.6934 90.0757 21.58 89.5823 21.58C89.1023 21.58 88.6757 21.6934 88.3023 21.92C87.929 22.1334 87.6357 22.4334 87.4223 22.82C87.209 23.2067 87.1023 23.6534 87.1023 24.16C87.1023 24.6667 87.209 25.12 87.4223 25.52C87.6357 25.9067 87.929 26.2134 88.3023 26.44C88.6757 26.6534 89.1023 26.76 89.5823 26.76Z" fill="#1A1A1A"/>
<path d="M102.635 23.78V21.56H105.895C106.322 21.56 106.709 21.4734 107.055 21.3C107.402 21.1267 107.675 20.88 107.875 20.56C108.075 20.2267 108.175 19.8267 108.175 19.36C108.175 18.9067 108.075 18.5134 107.875 18.18C107.675 17.8467 107.402 17.5934 107.055 17.42C106.709 17.2467 106.322 17.16 105.895 17.16H102.635V14.94H106.175C107.069 14.94 107.869 15.12 108.575 15.48C109.295 15.84 109.862 16.3534 110.275 17.02C110.689 17.6734 110.895 18.4534 110.895 19.36C110.895 20.2667 110.689 21.0534 110.275 21.72C109.862 22.3734 109.295 22.88 108.575 23.24C107.869 23.6 107.069 23.78 106.175 23.78H102.635ZM100.635 29V14.94H103.355V29H100.635Z" fill="#1A1A1A"/>
<path d="M112.68 29V19.34H115.3V29H112.68ZM115.3 23.66L114.28 22.98C114.4 21.7934 114.746 20.86 115.32 20.18C115.893 19.4867 116.72 19.14 117.8 19.14C118.266 19.14 118.686 19.22 119.06 19.38C119.433 19.5267 119.773 19.7734 120.08 20.12L118.44 22C118.293 21.84 118.113 21.72 117.9 21.64C117.7 21.56 117.466 21.52 117.2 21.52C116.64 21.52 116.18 21.7 115.82 22.06C115.473 22.4067 115.3 22.94 115.3 23.66Z" fill="#1A1A1A"/>
<path d="M125.266 29.2C124.293 29.2 123.413 28.98 122.626 28.54C121.853 28.0867 121.233 27.48 120.766 26.72C120.313 25.9467 120.086 25.0867 120.086 24.14C120.086 23.1934 120.313 22.3467 120.766 21.6C121.22 20.84 121.84 20.24 122.626 19.8C123.413 19.3467 124.286 19.12 125.246 19.12C126.233 19.12 127.113 19.3467 127.886 19.8C128.673 20.24 129.293 20.84 129.746 21.6C130.2 22.3467 130.426 23.1934 130.426 24.14C130.426 25.0867 130.2 25.9467 129.746 26.72C129.293 27.48 128.673 28.0867 127.886 28.54C127.113 28.98 126.24 29.2 125.266 29.2ZM125.246 26.76C125.74 26.76 126.173 26.6534 126.546 26.44C126.933 26.2134 127.226 25.9067 127.426 25.52C127.64 25.12 127.746 24.6667 127.746 24.16C127.746 23.6534 127.64 23.2067 127.426 22.82C127.213 22.4334 126.92 22.1334 126.546 21.92C126.173 21.6934 125.74 21.58 125.246 21.58C124.766 21.58 124.34 21.6934 123.966 21.92C123.593 22.1334 123.3 22.4334 123.086 22.82C122.873 23.2067 122.766 23.6534 122.766 24.16C122.766 24.6667 122.873 25.12 123.086 25.52C123.3 25.9067 123.593 26.2134 123.966 26.44C124.34 26.6534 124.766 26.76 125.246 26.76Z" fill="#1A1A1A"/>
<path d="M136.193 29.2C135.3 29.2 134.5 28.98 133.793 28.54C133.086 28.1 132.526 27.5 132.113 26.74C131.713 25.98 131.513 25.1267 131.513 24.18C131.513 23.22 131.713 22.36 132.113 21.6C132.526 20.84 133.08 20.24 133.773 19.8C134.48 19.36 135.286 19.14 136.193 19.14C136.886 19.14 137.506 19.28 138.053 19.56C138.613 19.84 139.06 20.2334 139.393 20.74C139.74 21.2334 139.926 21.7934 139.953 22.42V25.86C139.926 26.4867 139.746 27.0534 139.413 27.56C139.08 28.0667 138.633 28.4667 138.073 28.76C137.513 29.0534 136.886 29.2 136.193 29.2ZM136.633 26.78C137.126 26.78 137.553 26.6734 137.913 26.46C138.286 26.2334 138.573 25.9267 138.773 25.54C138.986 25.14 139.093 24.68 139.093 24.16C139.093 23.6534 138.986 23.2067 138.773 22.82C138.573 22.42 138.286 22.1134 137.913 21.9C137.553 21.6734 137.133 21.56 136.653 21.56C136.16 21.56 135.726 21.6734 135.353 21.9C134.993 22.1267 134.706 22.4334 134.493 22.82C134.293 23.2067 134.193 23.6534 134.193 24.16C134.193 24.68 134.293 25.14 134.493 25.54C134.706 25.9267 135 26.2334 135.373 26.46C135.746 26.6734 136.166 26.78 136.633 26.78ZM141.553 29H138.953V26.4L139.373 24.04L138.933 21.72V14.54H141.553V29Z" fill="#1A1A1A"/>
<path d="M147.991 29.2C147.138 29.2 146.378 29.02 145.711 28.66C145.058 28.3 144.544 27.8 144.171 27.16C143.798 26.52 143.611 25.78 143.611 24.94V19.34H146.251V24.88C146.251 25.28 146.318 25.6267 146.451 25.92C146.584 26.2 146.784 26.4134 147.051 26.56C147.318 26.7067 147.631 26.78 147.991 26.78C148.538 26.78 148.964 26.6134 149.271 26.28C149.578 25.9467 149.731 25.48 149.731 24.88V19.34H152.351V24.94C152.351 25.7934 152.164 26.54 151.791 27.18C151.431 27.82 150.918 28.32 150.251 28.68C149.598 29.0267 148.844 29.2 147.991 29.2Z" fill="#1A1A1A"/>
<path d="M158.997 29.2C158.011 29.2 157.124 28.98 156.337 28.54C155.551 28.1 154.931 27.5 154.477 26.74C154.024 25.98 153.797 25.1267 153.797 24.18C153.797 23.22 154.024 22.36 154.477 21.6C154.931 20.84 155.551 20.24 156.337 19.8C157.137 19.3467 158.024 19.12 158.997 19.12C159.757 19.12 160.457 19.26 161.097 19.54C161.737 19.82 162.291 20.22 162.757 20.74L161.077 22.44C160.824 22.16 160.517 21.9467 160.157 21.8C159.811 21.6534 159.424 21.58 158.997 21.58C158.517 21.58 158.084 21.6934 157.697 21.92C157.324 22.1334 157.024 22.4334 156.797 22.82C156.584 23.1934 156.477 23.64 156.477 24.16C156.477 24.6667 156.584 25.12 156.797 25.52C157.024 25.9067 157.324 26.2134 157.697 26.44C158.084 26.6534 158.517 26.76 158.997 26.76C159.437 26.76 159.831 26.6867 160.177 26.54C160.537 26.38 160.844 26.1534 161.097 25.86L162.797 27.56C162.304 28.0934 161.737 28.5 161.097 28.78C160.457 29.06 159.757 29.2 158.997 29.2Z" fill="#1A1A1A"/>
<path d="M165.545 29V15.32H168.165V29H165.545ZM163.285 21.64V19.34H170.425V21.64H163.285Z" fill="#1A1A1A"/>
<path d="M180.585 29L175.045 14.94H177.985L182.265 26.32H181.125L185.445 14.94H188.345L182.745 29H180.585Z" fill="#1A1A1A"/>
<path d="M189.906 29V19.34H192.546V29H189.906ZM191.226 17.78C190.799 17.78 190.446 17.64 190.166 17.36C189.886 17.0667 189.746 16.7067 189.746 16.28C189.746 15.8667 189.886 15.5134 190.166 15.22C190.446 14.9267 190.799 14.78 191.226 14.78C191.666 14.78 192.019 14.9267 192.286 15.22C192.566 15.5134 192.706 15.8667 192.706 16.28C192.706 16.7067 192.566 17.0667 192.286 17.36C192.019 17.64 191.666 17.78 191.226 17.78Z" fill="#1A1A1A"/>
<path d="M199.487 29.2C198.474 29.2 197.574 28.9867 196.787 28.56C196 28.12 195.374 27.52 194.907 26.76C194.454 26 194.227 25.1334 194.227 24.16C194.227 23.2 194.447 22.3467 194.887 21.6C195.34 20.84 195.954 20.24 196.727 19.8C197.5 19.3467 198.36 19.12 199.307 19.12C200.24 19.12 201.06 19.3334 201.767 19.76C202.487 20.1734 203.047 20.7467 203.447 21.48C203.86 22.2 204.067 23.02 204.067 23.94C204.067 24.1134 204.054 24.2934 204.027 24.48C204.014 24.6534 203.98 24.8534 203.927 25.08L195.807 25.1V23.14L202.707 23.12L201.647 23.94C201.62 23.3667 201.514 22.8867 201.327 22.5C201.154 22.1134 200.894 21.82 200.547 21.62C200.214 21.4067 199.8 21.3 199.307 21.3C198.787 21.3 198.334 21.42 197.947 21.66C197.56 21.8867 197.26 22.2134 197.047 22.64C196.847 23.0534 196.747 23.5467 196.747 24.12C196.747 24.7067 196.854 25.22 197.067 25.66C197.294 26.0867 197.614 26.42 198.027 26.66C198.44 26.8867 198.92 27 199.467 27C199.96 27 200.407 26.92 200.807 26.76C201.207 26.5867 201.554 26.3334 201.847 26L203.387 27.54C202.92 28.0867 202.347 28.5 201.667 28.78C201 29.06 200.274 29.2 199.487 29.2Z" fill="#1A1A1A"/>
<path d="M208.15 29L204.53 19.34H207.17L209.53 26.36L208.73 26.38L211.15 19.34H213.05L215.47 26.38L214.67 26.36L217.03 19.34H219.67L216.07 29H214.17L211.73 22.32H212.47L210.03 29H208.15Z" fill="#1A1A1A"/>
<path d="M224.027 29.22C223.48 29.22 222.94 29.1467 222.407 29C221.887 28.8534 221.407 28.6534 220.967 28.4C220.527 28.1334 220.147 27.8134 219.827 27.44L221.387 25.86C221.72 26.2334 222.107 26.5134 222.547 26.7C222.987 26.8867 223.474 26.98 224.007 26.98C224.434 26.98 224.754 26.92 224.967 26.8C225.194 26.68 225.307 26.5 225.307 26.26C225.307 25.9934 225.187 25.7867 224.947 25.64C224.72 25.4934 224.42 25.3734 224.047 25.28C223.674 25.1734 223.28 25.06 222.867 24.94C222.467 24.8067 222.08 24.64 221.707 24.44C221.334 24.2267 221.027 23.94 220.787 23.58C220.56 23.2067 220.447 22.7267 220.447 22.14C220.447 21.5267 220.594 20.9934 220.887 20.54C221.194 20.0867 221.627 19.7334 222.187 19.48C222.747 19.2267 223.407 19.1 224.167 19.1C224.967 19.1 225.687 19.24 226.327 19.52C226.98 19.8 227.52 20.22 227.947 20.78L226.367 22.36C226.074 22 225.74 21.74 225.367 21.58C225.007 21.42 224.614 21.34 224.187 21.34C223.8 21.34 223.5 21.4 223.287 21.52C223.087 21.64 222.987 21.8067 222.987 22.02C222.987 22.26 223.1 22.4467 223.327 22.58C223.567 22.7134 223.874 22.8334 224.247 22.94C224.62 23.0334 225.007 23.1467 225.407 23.28C225.82 23.4 226.207 23.5734 226.567 23.8C226.94 24.0267 227.24 24.3267 227.467 24.7C227.707 25.0734 227.827 25.5534 227.827 26.14C227.827 27.0867 227.487 27.84 226.807 28.4C226.127 28.9467 225.2 29.22 224.027 29.22Z" fill="#1A1A1A"/>
<defs>
<clipPath id="clip0_3501_2">
<rect width="22" height="22" fill="white" transform="translate(11 11)"/>
</clipPath>
</defs>
</svg>
